<?xml version="1.0" encoding="utf-8"?>
<!-- Generator: Adobe Illustrator 17.0.0, SVG Export Plug-In . SVG Version: 6.00 Build 0)  -->
<!DOCTYPE svg PUBLIC "-//W3C//DTD SVG 1.1//EN" "http://www.w3.org/Graphics/SVG/1.1/DTD/svg11.dtd">
<svg version="1.1" id="Capa_1" xmlns="http://www.w3.org/2000/svg" xmlns:xlink="http://www.w3.org/1999/xlink" x="0px" y="0px"
	 width="30.298px" height="31.294px" viewBox="7.997 0 30.298 31.294" enable-background="new 7.997 0 30.298 31.294"
	 xml:space="preserve">
<g>
	<g>
		<path fill="#FFFFFF" d="M31.06,6.358c0.876,0,1.369-0.817,1.369-1.855c0-0.935-0.464-1.818-1.369-1.818
			c-0.898,0-1.376,0.832-1.376,1.854C29.684,5.556,30.192,6.358,31.06,6.358z"/>
		<path fill="#FFFFFF" d="M15.257,3.363c0-0.471-0.353-0.685-0.927-0.685c-0.265,0-0.42,0.015-0.515,0.037v1.362h0.464
			C14.911,4.077,15.257,3.783,15.257,3.363z"/>
		<path fill="#FFFFFF" d="M15.397,5.549c0-0.582-0.508-0.817-1.134-0.817h-0.449v1.62c0.118,0.022,0.272,0.022,0.478,0.022
			C14.875,6.373,15.397,6.159,15.397,5.549z"/>
		<path fill="#FFFFFF" d="M11.525,31.143H34.36c1.695,0,3.068-1.374,3.068-3.068V3.068C37.428,1.374,36.055,0,34.36,0H11.525
			C9.831,0,8.457,1.374,8.457,3.068v25.007C8.457,29.769,9.831,31.143,11.525,31.143z M26.406,28.279h-7.057v-5.932h7.057V28.279z
			 M26.406,21.12h-7.057v-5.319h7.057V21.12z M26.406,14.574h-7.057V8.847h7.057V14.574z M34.895,25.211
			c0,1.694-1.374,3.068-3.068,3.068h-4.193v-5.932h7.261V25.211z M34.895,21.12h-7.261v-5.319h7.261V21.12z M34.895,11.915v2.659
			h-7.261V8.847h4.193C33.522,8.847,34.895,10.22,34.895,11.915z M31.09,1.957c1.442,0,2.296,1.097,2.296,2.517
			c0,1.664-1.008,2.612-2.37,2.612c-1.405,0-2.289-1.074-2.289-2.524C28.727,3.031,29.692,1.957,31.09,1.957z M26.583,1.994
			c0.611,0,1.089,0.125,1.317,0.235l-0.198,0.728c-0.273-0.125-0.603-0.213-1.126-0.213c-1.06,0-1.803,0.625-1.803,1.781
			c0,1.127,0.692,1.796,1.722,1.796c0.331,0,0.567-0.044,0.684-0.096V4.981h-0.875V4.268h1.752v2.51
			c-0.317,0.118-0.935,0.28-1.591,0.28c-0.839,0-1.479-0.214-1.95-0.663c-0.442-0.42-0.692-1.074-0.692-1.825
			C23.831,2.995,24.942,1.994,26.583,1.994z M19.095,2.045h1.038l1.281,2.127c0.323,0.553,0.618,1.126,0.846,1.664h0.015
			c-0.066-0.662-0.081-1.303-0.081-2.061V2.046h0.839v4.96H22.09L20.794,4.82c-0.316-0.545-0.64-1.148-0.883-1.708L19.882,3.12
			c0.037,0.64,0.051,1.295,0.051,2.112v1.774h-0.84L19.095,2.045L19.095,2.045z M17.159,2.045h0.905v4.96h-0.905V2.045z
			 M12.917,2.119c0.287-0.059,0.809-0.111,1.325-0.111c0.663,0,1.082,0.088,1.413,0.317c0.31,0.184,0.516,0.508,0.516,0.935
			c0,0.457-0.287,0.868-0.824,1.067v0.022c0.522,0.132,1.001,0.545,1.001,1.222c0,0.442-0.191,0.788-0.471,1.03
			c-0.353,0.302-0.935,0.457-1.847,0.457c-0.501,0-0.876-0.037-1.111-0.066L12.917,2.119L12.917,2.119z M11.065,11.915
			c0-1.694,1.374-3.068,3.068-3.068h3.989v5.727h-7.057V11.915z M11.065,15.802h7.057v5.319h-7.057V15.802z M11.065,22.347h7.057
			v5.932h-3.989c-1.694,0-3.068-1.374-3.068-3.068L11.065,22.347L11.065,22.347z"/>
		<path fill="#FFFFFF" d="M14.701,11.286c-0.311,0-0.546,0.124-0.698,0.301h-0.014c0.077-0.431,0.388-0.828,1.043-0.904
			c0.115-0.014,0.211-0.019,0.297-0.014v-0.464c-0.072-0.005-0.168-0.005-0.297,0.013c-0.445,0.034-0.823,0.187-1.105,0.46
			c-0.325,0.306-0.54,0.789-0.54,1.388c0,0.771,0.416,1.345,1.172,1.345c0.661,0,1.096-0.517,1.096-1.11
			C15.653,11.669,15.237,11.286,14.701,11.286z M14.557,12.971c-0.387,0-0.579-0.335-0.588-0.747c0-0.082,0.014-0.139,0.038-0.186
			c0.091-0.187,0.287-0.321,0.508-0.321c0.344,0,0.54,0.254,0.54,0.618C15.054,12.707,14.859,12.971,14.557,12.971z"/>
		<polygon fill="#FFFFFF" points="21.16,10.779 21.17,10.779 21.17,13.358 21.738,13.358 21.738,10.248 21.251,10.248 20.49,10.621 
			20.59,11.066 		"/>
		<path fill="#FFFFFF" d="M23.717,12.267c0.296,0,0.521-0.101,0.68-0.273h0.01c-0.058,0.296-0.196,0.531-0.402,0.693
			c-0.172,0.139-0.397,0.22-0.631,0.24c-0.139,0.014-0.23,0.019-0.325,0.01v0.469c0.091,0.005,0.22,0.005,0.354-0.01
			c0.421-0.029,0.794-0.177,1.062-0.425c0.325-0.311,0.541-0.785,0.541-1.45c0-0.76-0.382-1.325-1.11-1.325
			c-0.661,0-1.12,0.512-1.12,1.11C22.774,11.879,23.176,12.267,23.717,12.267z M23.864,10.631c0.383,0,0.541,0.359,0.541,0.78
			c0,0.081-0.014,0.129-0.034,0.172c-0.091,0.144-0.262,0.258-0.502,0.258c-0.325,0-0.512-0.248-0.512-0.569
			C23.358,10.894,23.568,10.631,23.864,10.631z"/>
		<path fill="#FFFFFF" d="M30.022,11.693v-0.01c0.382-0.134,0.575-0.402,0.575-0.728c0-0.407-0.325-0.76-0.971-0.76
			c-0.369,0-0.718,0.119-0.895,0.239l0.134,0.425c0.13-0.086,0.384-0.196,0.637-0.196c0.345,0,0.499,0.177,0.499,0.393
			c0,0.306-0.345,0.43-0.612,0.43h-0.268v0.431h0.268c0.358,0,0.707,0.158,0.707,0.526c0,0.244-0.176,0.498-0.626,0.498
			c-0.297,0-0.588-0.12-0.708-0.191l-0.134,0.446c0.168,0.11,0.493,0.215,0.871,0.215c0.771,0,1.211-0.417,1.211-0.943
			C30.702,12.047,30.401,11.764,30.022,11.693z"/>
		<path fill="#FFFFFF" d="M31.154,12.066c0,0.771,0.416,1.345,1.172,1.345c0.66,0,1.095-0.517,1.095-1.11
			c0-0.631-0.417-1.014-0.953-1.014c-0.311,0-0.545,0.124-0.698,0.301h-0.014c0.077-0.431,0.387-0.828,1.042-0.904
			c0.116-0.014,0.211-0.019,0.297-0.014v-0.464c-0.071-0.005-0.167-0.005-0.297,0.013c-0.445,0.034-0.823,0.187-1.105,0.46
			C31.369,10.984,31.154,11.467,31.154,12.066z M31.776,12.038c0.09-0.187,0.288-0.321,0.507-0.321c0.345,0,0.541,0.254,0.541,0.618
			c0,0.372-0.195,0.636-0.497,0.636c-0.387,0-0.578-0.335-0.588-0.747C31.738,12.142,31.752,12.085,31.776,12.038z"/>
		<path fill="#FFFFFF" d="M15.29,16.921h-0.694l-1.273,1.938v0.383h1.411v0.79h0.555v-0.79h0.402v-0.445h-0.402L15.29,16.921
			L15.29,16.921z M14.734,17.95v0.847h-0.847v-0.01l0.574-0.852c0.096-0.171,0.177-0.329,0.272-0.526h0.019
			C14.743,17.596,14.734,17.773,14.734,17.95z"/>
		<path fill="#FFFFFF" d="M22.351,19.544h-1.273v-0.01l0.268-0.234c0.546-0.503,0.938-0.943,0.938-1.489
			c0-0.506-0.334-0.942-1.024-0.942c-0.392,0-0.732,0.139-0.957,0.321l0.172,0.417c0.158-0.119,0.388-0.259,0.665-0.259
			c0.407,0,0.555,0.244,0.555,0.522c-0.005,0.412-0.349,0.784-1.081,1.465l-0.368,0.34v0.358h2.106L22.351,19.544L22.351,19.544
			L22.351,19.544z"/>
		<path fill="#FFFFFF" d="M24.109,20.031h0.555v-0.789h0.402v-0.446h-0.402v-1.875H23.97l-1.273,1.938v0.383h1.411V20.031z
			 M23.262,18.797v-0.01l0.575-0.852c0.096-0.171,0.177-0.329,0.272-0.526h0.019c-0.01,0.186-0.019,0.364-0.019,0.54v0.847H23.262z"
			/>
		<path fill="#FFFFFF" d="M29.506,19.616c-0.296,0-0.588-0.12-0.708-0.192l-0.133,0.446c0.167,0.11,0.493,0.215,0.87,0.215
			c0.771,0,1.211-0.417,1.211-0.942c-0.005-0.421-0.306-0.704-0.684-0.775v-0.01c0.383-0.134,0.575-0.402,0.575-0.728
			c0-0.408-0.326-0.761-0.972-0.761c-0.368,0-0.717,0.12-0.894,0.24l0.134,0.425c0.13-0.086,0.383-0.196,0.636-0.196
			c0.345,0,0.498,0.177,0.498,0.393c0,0.307-0.345,0.43-0.612,0.43h-0.268v0.431h0.268c0.359,0,0.708,0.158,0.708,0.526
			C30.133,19.361,29.956,19.616,29.506,19.616z"/>
		<polygon fill="#FFFFFF" points="32.761,17.419 31.45,20.031 32.067,20.031 33.383,17.3 33.383,16.921 31.292,16.921 31.292,17.41 
			32.761,17.41 		"/>
		<polygon fill="#FFFFFF" points="13.069,24.127 13.078,24.127 13.078,26.705 13.647,26.705 13.647,23.595 13.159,23.595 
			12.399,23.969 12.498,24.413 		"/>
		<path fill="#FFFFFF" d="M15.778,26.758c0.746,0,1.139-0.627,1.139-1.632c0-0.913-0.349-1.583-1.1-1.583
			c-0.727,0-1.139,0.646-1.139,1.618C14.682,26.107,15.065,26.758,15.778,26.758z M15.803,23.993c0.354,0,0.522,0.425,0.522,1.148
			c0,0.747-0.177,1.168-0.526,1.168c-0.32,0-0.526-0.393-0.526-1.153C15.271,24.38,15.491,23.993,15.803,23.993z"/>
		<path fill="#FFFFFF" d="M22.351,26.217h-1.273v-0.01l0.268-0.234c0.546-0.503,0.938-0.943,0.938-1.489
			c0-0.506-0.334-0.942-1.024-0.942c-0.392,0-0.732,0.139-0.957,0.321l0.172,0.416c0.158-0.119,0.388-0.259,0.665-0.259
			c0.407,0,0.555,0.244,0.555,0.522c-0.005,0.412-0.349,0.784-1.081,1.465l-0.368,0.34v0.358h2.106L22.351,26.217L22.351,26.217
			L22.351,26.217z"/>
		<polygon fill="#FFFFFF" points="23.726,24.127 23.736,24.127 23.736,26.705 24.305,26.705 24.305,23.595 23.817,23.595 
			23.056,23.969 23.157,24.413 		"/>
		<path fill="#FFFFFF" d="M29.789,26.758c0.66,0,1.095-0.517,1.095-1.11c0-0.631-0.416-1.015-0.952-1.015
			c-0.311,0-0.546,0.125-0.699,0.301h-0.014c0.077-0.431,0.388-0.828,1.043-0.904c0.115-0.014,0.21-0.019,0.296-0.014v-0.464
			c-0.072-0.005-0.167-0.005-0.296,0.013c-0.446,0.034-0.823,0.188-1.106,0.46c-0.324,0.306-0.541,0.789-0.541,1.387
			C28.617,26.184,29.032,26.758,29.789,26.758z M29.238,25.385c0.091-0.188,0.287-0.321,0.508-0.321c0.344,0,0.54,0.254,0.54,0.617
			c0,0.373-0.196,0.636-0.497,0.636c-0.387,0-0.579-0.335-0.588-0.747C29.2,25.49,29.214,25.432,29.238,25.385z"/>
		<path fill="#FFFFFF" d="M32.292,26.758c0.747,0,1.139-0.627,1.139-1.632c0-0.913-0.349-1.583-1.1-1.583
			c-0.728,0-1.139,0.646-1.139,1.618C31.197,26.107,31.579,26.758,32.292,26.758z M32.316,23.993c0.354,0,0.521,0.425,0.521,1.148
			c0,0.747-0.176,1.168-0.526,1.168c-0.321,0-0.526-0.393-0.526-1.153C31.786,24.38,32.006,23.993,32.316,23.993z"/>
	</g>
</g>
<g>
	<path fill="#FFFFFF" d="M52.956,1.803c-5.523,0-10,4.477-10,10c0,5.523,4.477,10,10,10c5.523,0,10-4.477,10-10
		C62.956,6.28,58.479,1.803,52.956,1.803z M52.956,17.971c-3.261,0-5.915-2.653-5.915-5.915c0-3.261,2.653-5.915,5.915-5.915
		c3.262,0,5.915,2.653,5.915,5.915C58.871,15.317,56.217,17.971,52.956,17.971z"/>
	<path fill="#FFFFFF" d="M52.956,6.729c-2.942,0-5.326,2.385-5.326,5.327c0,2.942,2.385,5.327,5.326,5.327
		c2.942,0,5.327-2.385,5.327-5.327C58.282,9.114,55.898,6.729,52.956,6.729z M52.956,16.772c-2.604,0-4.716-2.111-4.716-4.716
		c0-2.604,2.111-4.716,4.716-4.716c2.605,0,4.716,2.112,4.716,4.716C57.672,14.661,55.56,16.772,52.956,16.772z"/>
</g>
<g>
	<path fill="#FFFFFF" d="M51.663,13.995V9.899c0-0.215,0.173-0.382,0.382-0.382c0.007,0,0.007,0,0.021,0c0,0,0,0,0.007,0h0.958
		c0.729,0,1.319,0.59,1.319,1.319c0,0.299-0.097,0.569-0.264,0.792c0.417,0.264,0.701,0.729,0.701,1.257
		c0,0.826-0.667,1.493-1.486,1.493h-1.229c-0.007,0-0.007-0.007-0.007-0.007c-0.014,0-0.014,0.007-0.021,0.007
		C51.836,14.377,51.663,14.204,51.663,13.995z M52.433,11.398h0.597c0.305,0,0.548-0.257,0.548-0.563
		c0-0.305-0.243-0.548-0.548-0.548h-0.597V11.398z M52.433,13.606h0.868c0.396-0.007,0.715-0.319,0.715-0.722
		c0-0.396-0.319-0.708-0.715-0.715h-0.868V13.606z"/>
</g>
</svg>
