<?xml version="1.0" encoding="utf-8"?>
<!-- Generator: Adobe Illustrator 17.0.0, SVG Export Plug-In . SVG Version: 6.00 Build 0)  -->
<!DOCTYPE svg PUBLIC "-//W3C//DTD SVG 1.1//EN" "http://www.w3.org/Graphics/SVG/1.1/DTD/svg11.dtd">
<svg version="1.1" id="Capa_1" xmlns="http://www.w3.org/2000/svg" xmlns:xlink="http://www.w3.org/1999/xlink" x="0px" y="0px"
	 width="40px" height="42.999px" viewBox="0 0 40 42.999" enable-background="new 0 0 40 42.999" xml:space="preserve">
<g>
	<g id="XMLID_1_">
		<g>
			<path fill="#FFFFFF" d="M33.1,6.22c0-1.29-0.64-2.51-1.89-2.51c-1.24,0-1.9,1.15-1.9,2.56c0,1.4,0.7,2.51,1.9,2.51
				C32.42,8.78,33.1,7.65,33.1,6.22z M31.25,2.7c1.99,0,3.17,1.52,3.17,3.48c0,2.3-1.39,3.61-3.27,3.61c-1.94,0-3.16-1.49-3.16-3.49
				C27.99,4.19,29.32,2.7,31.25,2.7z"/>
			<path fill="#FFFFFF" d="M24.9,8.73c0.46,0,0.79-0.06,0.95-0.13V6.88h-1.21V5.89h2.42v3.47c-0.44,0.16-1.29,0.38-2.2,0.38
				c-1.15,0-2.04-0.29-2.69-0.91c-0.61-0.58-0.95-1.49-0.95-2.52c0.01-2.17,1.54-3.56,3.81-3.56c0.84,0,1.5,0.18,1.81,0.33l-0.27,1
				c-0.37-0.17-0.83-0.29-1.55-0.29c-1.47,0-2.49,0.86-2.49,2.46C22.53,7.8,23.48,8.73,24.9,8.73z"/>
			<path fill="#FFFFFF" d="M17.89,5.76c0.44,0.76,0.85,1.56,1.17,2.3h0.02c-0.09-0.92-0.12-1.8-0.12-2.85V2.83h1.16v6.84h-1.3
				l-1.79-3.01C16.6,5.9,16.15,5.07,15.81,4.3l-0.04,0.01c0.05,0.88,0.07,1.79,0.07,2.91v2.45h-1.15V2.82h1.43L17.89,5.76z"/>
			<rect x="12.01" y="2.82" fill="#FFFFFF" width="1.25" height="6.85"/>
			<path fill="#FFFFFF" d="M9.39,4.64c0-0.65-0.49-0.94-1.28-0.94c-0.37,0-0.58,0.02-0.71,0.05v1.88h0.64
				C8.91,5.63,9.39,5.22,9.39,4.64z M8.06,8.8c0.8,0,1.52-0.3,1.52-1.14c0-0.8-0.7-1.13-1.56-1.13H7.4v2.24
				C7.56,8.8,7.77,8.8,8.06,8.8z M9.94,3.21c0.42,0.25,0.71,0.7,0.71,1.29c0,0.63-0.4,1.2-1.14,1.47V6
				c0.72,0.19,1.38,0.76,1.38,1.69c0,0.61-0.26,1.09-0.65,1.42C9.76,9.53,8.95,9.74,7.69,9.74C7,9.74,6.48,9.69,6.16,9.65V2.93
				c0.39-0.09,1.12-0.16,1.83-0.16C8.9,2.77,9.48,2.9,9.94,3.21z"/>
			<path fill="#FFFFFF" d="M36.5,16.45v18.36c0,2.34-1.89,4.23-4.23,4.23H7.84c-2.34,0-4.24-1.89-4.24-4.23V16.45
				c0-2.34,1.9-4.24,4.24-4.24h24.43C34.61,12.21,36.5,14.11,36.5,16.45z"/>
			<path fill="#8E8D8D" d="M33.1,6.22c0,1.43-0.68,2.56-1.89,2.56c-1.2,0-1.9-1.11-1.9-2.51c0-1.41,0.66-2.56,1.9-2.56
				C32.46,3.71,33.1,4.93,33.1,6.22z"/>
			<path fill="#8E8D8D" d="M9.58,7.66c0,0.84-0.72,1.14-1.52,1.14c-0.29,0-0.5,0-0.66-0.03V6.53h0.62C8.88,6.53,9.58,6.86,9.58,7.66
				z"/>
			<path fill="#8E8D8D" d="M8.11,3.7c0.79,0,1.28,0.29,1.28,0.94c0,0.58-0.48,0.99-1.35,0.99H7.4V3.75C7.53,3.72,7.74,3.7,8.11,3.7z
				"/>
			<path fill="#8E8D8D" d="M31.15,9.79c1.88,0,3.27-1.31,3.27-3.61c0-1.96-1.18-3.48-3.17-3.48c-1.93,0-3.26,1.49-3.26,3.6
				C27.99,8.3,29.21,9.79,31.15,9.79z M25.85,8.6c-0.16,0.07-0.49,0.13-0.95,0.13c-1.42,0-2.37-0.93-2.37-2.48
				c0-1.6,1.02-2.46,2.49-2.46c0.72,0,1.18,0.12,1.55,0.29l0.27-1c-0.31-0.15-0.97-0.33-1.81-0.33c-2.27,0-3.8,1.39-3.81,3.56
				c0,1.03,0.34,1.94,0.95,2.52c0.65,0.62,1.54,0.91,2.69,0.91c0.91,0,1.76-0.22,2.2-0.38V5.89h-2.42v0.99h1.21V8.6z M10.65,4.5
				c0-0.59-0.29-1.04-0.71-1.29C9.48,2.9,8.9,2.77,7.99,2.77c-0.71,0-1.44,0.07-1.83,0.16v6.72C6.48,9.69,7,9.74,7.69,9.74
				c1.26,0,2.07-0.21,2.55-0.63c0.39-0.33,0.65-0.81,0.65-1.42c0-0.93-0.66-1.5-1.38-1.69V5.97C10.25,5.7,10.65,5.13,10.65,4.5z
				 M13.26,9.67V2.82h-1.25v6.85H13.26z M4.24,0h31.52C38.1,0,40,1.9,40,4.24v34.52C40,41.1,38.1,43,35.76,43H4.24
				C1.9,43,0,41.1,0,38.76V4.24C0,1.9,1.9,0,4.24,0z M19.06,8.06c-0.32-0.74-0.73-1.54-1.17-2.3l-1.77-2.94h-1.43v6.85h1.15V7.22
				c0-1.12-0.02-2.03-0.07-2.91l0.04-0.01c0.34,0.77,0.79,1.6,1.22,2.36l1.79,3.01h1.3V2.83h-1.16v2.38c0,1.05,0.03,1.93,0.12,2.85
				H19.06z M32.27,12.21H7.84c-2.34,0-4.24,1.9-4.24,4.24v18.36c0,2.34,1.9,4.23,4.24,4.23h24.43c2.34,0,4.23-1.89,4.23-4.23V16.45
				C36.5,14.11,34.61,12.21,32.27,12.21z"/>
		</g>
		<g>
		</g>
	</g>
</g>
</svg>
