<?xml version="1.0" encoding="utf-8"?>
<!-- Generator: Adobe Illustrator 17.0.0, SVG Export Plug-In . SVG Version: 6.00 Build 0)  -->
<!DOCTYPE svg PUBLIC "-//W3C//DTD SVG 1.1//EN" "http://www.w3.org/Graphics/SVG/1.1/DTD/svg11.dtd">
<svg version="1.1" id="Capa_1" xmlns="http://www.w3.org/2000/svg" xmlns:xlink="http://www.w3.org/1999/xlink" x="0px" y="0px"
	 width="160px" height="171.996px" viewBox="0 0 160 171.996" enable-background="new 0 0 160 171.996" xml:space="preserve">
<g>
	<g id="XMLID_1_">
		<g>
			<path fill="#8E8D8D" d="M160,16.948v138.1c0,9.36-7.58,16.95-16.94,16.95H16.94c-9.35,0-16.94-7.59-16.94-16.95v-138.1
				c0-9.36,7.59-16.95,16.94-16.95h126.12C152.42-0.002,160,7.588,160,16.948z M146.02,139.238h-0.01v-3.38h-24.82v20.32h7.88
				C138.43,156.178,146.02,148.588,146.02,139.238z M146.01,132.858v-18.35h-24.82v18.35H146.01z M146.01,111.508v-18.34h-24.82
				v18.34H146.01z M146.01,90.168v-18.35h-24.82v18.35H146.01z M146.01,68.818v-3.02c0-9.35-7.58-16.94-16.94-16.94h-7.88v19.96
				H146.01z M137.68,24.708c0-7.84-4.72-13.9-12.68-13.9c-7.73,0-13.05,5.93-13.05,14.39c0,8.01,4.88,13.94,12.64,13.94
				C132.11,39.138,137.68,33.898,137.68,24.708z M118.19,156.178v-20.32H94.87v20.32H118.19z M118.19,132.858v-18.35H94.87v18.35
				H118.19z M118.19,111.508v-18.34H94.87v18.34H118.19z M118.19,90.168v-18.35H94.87v18.35H118.19z M118.19,68.818v-19.96H94.87
				v19.96H118.19z M108.24,37.428v-13.86h-9.67v3.94h4.83v6.88c-0.65,0.28-1.95,0.52-3.78,0.52c-5.69,0-9.51-3.7-9.51-9.92
				c0-6.38,4.1-9.83,9.96-9.83c2.89,0,4.72,0.49,6.22,1.18l1.09-4.03c-1.26-0.6-3.9-1.3-7.27-1.3c-9.07,0-15.2,5.53-15.24,14.22
				c0,4.15,1.38,7.76,3.82,10.08c2.6,2.48,6.14,3.66,10.77,3.66C103.08,38.968,106.49,38.078,108.24,37.428z M91.87,156.178v-20.32
				H68.55v20.32H91.87z M91.87,132.858v-18.35H68.55v18.35H91.87z M91.87,111.508v-18.34H68.55v18.34H91.87z M91.87,90.168v-18.35
				H68.55v18.35H91.87z M91.87,68.818v-19.96H68.55v19.96H91.87z M80.49,38.698v-27.4h-4.63v9.55c0,4.18,0.08,7.72,0.45,11.38h-0.08
				c-1.26-2.97-2.89-6.14-4.68-9.19l-7.07-11.74h-5.73h-0.01v27.4h4.64v-9.8c0-4.51-0.08-8.13-0.29-11.67l0.17-0.04
				c1.34,3.1,3.13,6.42,4.87,9.44l7.16,12.07H80.49z M65.55,156.178v-20.32H42.23v20.32H65.55z M65.55,132.858v-18.35H42.23v18.35
				H65.55z M65.55,111.508v-18.34H42.23v18.34H65.55z M65.55,90.168v-18.35H42.23v18.35H65.55z M65.55,68.818v-19.96H42.23v19.96
				H65.55z M53.06,38.688v-27.39h-5v27.39H53.06z M40.98,36.448c1.54-1.33,2.6-3.24,2.6-5.68c0-3.74-2.65-6.02-5.53-6.75v-0.13
				c2.96-1.09,4.55-3.37,4.55-5.89c0-2.35-1.14-4.14-2.85-5.16c-1.83-1.26-4.14-1.75-7.8-1.75c-2.84,0-5.72,0.29-7.31,0.62v26.9
				c1.3,0.16,3.37,0.37,6.14,0.37C35.81,38.978,39.02,38.118,40.98,36.448z M39.23,156.178v-20.32H14.4v3.38
				c0,9.35,7.59,16.94,16.95,16.94H39.23z M39.23,132.858v-18.35H14.4v18.35H39.23z M39.23,111.508v-18.34H14.4v18.34H39.23z
				 M39.23,90.168v-18.35H14.4v18.35H39.23z M39.23,68.818v-19.96h-7.88c-9.36,0-16.95,7.59-16.95,16.94v3.02H39.23z"/>
			<path fill="#DE2B7B" d="M146.01,139.238h0.01c0,9.35-7.59,16.94-16.95,16.94h-7.88v-20.32h24.82V139.238z"/>
			<rect x="121.19" y="114.508" fill="#DE2B7B" width="24.82" height="18.35"/>
			<rect x="121.19" y="93.168" fill="#DE2B7B" width="24.82" height="18.34"/>
			<rect x="121.19" y="71.818" fill="#DE2B7B" width="24.82" height="18.35"/>
			<path fill="#DE2B7B" d="M146.01,65.798v3.02h-24.82v-19.96h7.88C138.43,48.858,146.01,56.448,146.01,65.798z"/>
			<path fill="#FFFFFF" d="M125,10.808c7.96,0,12.68,6.06,12.68,13.9c0,9.19-5.57,14.43-13.09,14.43c-7.76,0-12.64-5.93-12.64-13.94
				C111.95,16.738,117.27,10.808,125,10.808z M132.4,24.868c0-5.16-2.56-10.04-7.56-10.04c-4.96,0-7.61,4.6-7.61,10.24
				c0,5.62,2.8,10.04,7.61,10.04C129.68,35.108,132.4,30.598,132.4,24.868z"/>
			<path fill="#8E8D8D" d="M124.84,14.828c5,0,7.56,4.88,7.56,10.04c0,5.73-2.72,10.24-7.56,10.24c-4.81,0-7.61-4.42-7.61-10.04
				C117.23,19.428,119.88,14.828,124.84,14.828z"/>
			<rect x="94.87" y="135.858" fill="#FFFFFF" width="23.32" height="20.32"/>
			<rect x="94.87" y="114.508" fill="#FFFFFF" width="23.32" height="18.35"/>
			<rect x="94.87" y="93.168" fill="#DE2B7B" width="23.32" height="18.34"/>
			<rect x="94.87" y="71.818" fill="#FFFFFF" width="23.32" height="18.35"/>
			<rect x="94.87" y="48.858" fill="#DE2B7B" width="23.32" height="19.96"/>
			<path fill="#FFFFFF" d="M108.24,23.568v13.86c-1.75,0.65-5.16,1.54-8.78,1.54c-4.63,0-8.17-1.18-10.77-3.66
				c-2.44-2.32-3.82-5.93-3.82-10.08c0.04-8.69,6.17-14.22,15.24-14.22c3.37,0,6.01,0.7,7.27,1.3l-1.09,4.03
				c-1.5-0.69-3.33-1.18-6.22-1.18c-5.86,0-9.96,3.45-9.96,9.83c0,6.22,3.82,9.92,9.51,9.92c1.83,0,3.13-0.24,3.78-0.52v-6.88h-4.83
				v-3.94H108.24z"/>
			<rect x="68.55" y="135.858" fill="#FFFFFF" width="23.32" height="20.32"/>
			<rect x="68.55" y="114.508" fill="#FFFFFF" width="23.32" height="18.35"/>
			<rect x="68.55" y="93.168" fill="#DE2B7B" width="23.32" height="18.34"/>
			<rect x="68.55" y="71.818" fill="#FFFFFF" width="23.32" height="18.35"/>
			<rect x="68.55" y="48.858" fill="#DE2B7B" width="23.32" height="19.96"/>
			<path fill="#FFFFFF" d="M80.49,11.298v27.4h-5.2l-7.16-12.07c-1.74-3.02-3.53-6.34-4.87-9.44l-0.17,0.04
				c0.21,3.54,0.29,7.16,0.29,11.67v9.8h-4.64v-27.4h0.01h5.73l7.07,11.74c1.79,3.05,3.42,6.22,4.68,9.19h0.08
				c-0.37-3.66-0.45-7.2-0.45-11.38v-9.55H80.49z"/>
			<rect x="42.23" y="135.858" fill="#FFFFFF" width="23.32" height="20.32"/>
			<rect x="42.23" y="114.508" fill="#FFFFFF" width="23.32" height="18.35"/>
			<rect x="42.23" y="93.168" fill="#DE2B7B" width="23.32" height="18.34"/>
			<rect x="42.23" y="71.818" fill="#FFFFFF" width="23.32" height="18.35"/>
			<rect x="42.23" y="48.858" fill="#DE2B7B" width="23.32" height="19.96"/>
			<rect x="48.06" y="11.298" fill="#FFFFFF" width="5" height="27.39"/>
			<path fill="#FFFFFF" d="M43.58,30.768c0,2.44-1.06,4.35-2.6,5.68c-1.96,1.67-5.17,2.53-10.2,2.53c-2.77,0-4.84-0.21-6.14-0.37
				v-26.9c1.59-0.33,4.47-0.62,7.31-0.62c3.66,0,5.97,0.49,7.8,1.75c1.71,1.02,2.85,2.81,2.85,5.16c0,2.52-1.59,4.8-4.55,5.89v0.13
				C40.93,24.748,43.58,27.028,43.58,30.768z M38.33,30.648c0-3.22-2.81-4.52-6.26-4.52h-2.48v8.95c0.65,0.12,1.5,0.12,2.64,0.12
				C35.44,35.198,38.33,34.018,38.33,30.648z M37.56,18.568c0-2.6-1.96-3.78-5.12-3.78c-1.47,0-2.32,0.08-2.85,0.2v7.52h2.56
				C35.64,22.508,37.56,20.888,37.56,18.568z"/>
			<path fill="#DE2B7B" d="M39.23,135.858v20.32h-7.88c-9.36,0-16.95-7.59-16.95-16.94v-3.38H39.23z"/>
			<rect x="14.4" y="114.508" fill="#DE2B7B" width="24.83" height="18.35"/>
			<rect x="14.4" y="93.168" fill="#DE2B7B" width="24.83" height="18.34"/>
			<rect x="14.4" y="71.818" fill="#DE2B7B" width="24.83" height="18.35"/>
			<path fill="#DE2B7B" d="M39.23,48.858v19.96H14.4v-3.02c0-9.35,7.59-16.94,16.95-16.94H39.23z"/>
			<path fill="#8E8D8D" d="M32.07,26.128c3.45,0,6.26,1.3,6.26,4.52c0,3.37-2.89,4.55-6.1,4.55c-1.14,0-1.99,0-2.64-0.12v-8.95
				H32.07z"/>
			<path fill="#8E8D8D" d="M32.44,14.788c3.16,0,5.12,1.18,5.12,3.78c0,2.32-1.92,3.94-5.41,3.94h-2.56v-7.52
				C30.12,14.868,30.97,14.788,32.44,14.788z"/>
		</g>
		<g>
		</g>
	</g>
</g>
</svg>
