<?xml version="1.0" encoding="utf-8"?>
<!-- Generator: Adobe Illustrator 23.0.0, SVG Export Plug-In . SVG Version: 6.00 Build 0)  -->
<svg version="1.1" id="Capa_1" xmlns="http://www.w3.org/2000/svg" xmlns:xlink="http://www.w3.org/1999/xlink" x="0px" y="0px"
	 viewBox="0 0 160 172" style="enable-background:new 0 0 160 172;" xml:space="preserve">
<style type="text/css">
	.st0{fill:#DE2B7B;}
	.st1{fill:#FFFFFF;}
	.st2{fill:#8E8D8D;}
</style>
<g>
	<g id="XMLID_1_">
		<g>
			<path class="st0" d="M146,139.2c0,9.4-7.6,16.9-16.9,16.9h-7.9v-20.3H146L146,139.2L146,139.2z"/>
			<rect x="121.2" y="114.5" class="st0" width="24.8" height="18.3"/>
			<rect x="121.2" y="93.2" class="st0" width="24.8" height="18.3"/>
			<rect x="121.2" y="71.8" class="st0" width="24.8" height="18.3"/>
			<path class="st0" d="M129.1,48.9c9.4,0,16.9,7.6,16.9,16.9v3h-24.8v-20H129.1z"/>
			<path class="st1" d="M124.8,35.1c4.8,0,7.6-4.5,7.6-10.2c0-5.2-2.6-10-7.6-10c-5,0-7.6,4.6-7.6,10.2
				C117.2,30.7,120,35.1,124.8,35.1z M124.6,39.1c-7.8,0-12.6-5.9-12.6-13.9c0-8.5,5.3-14.4,13.1-14.4c8,0,12.7,6.1,12.7,13.9
				C137.7,33.9,132.1,39.1,124.6,39.1z"/>
			<path class="st2" d="M124.8,35.1c-4.8,0-7.6-4.4-7.6-10c0-5.6,2.7-10.2,7.6-10.2c5,0,7.6,4.9,7.6,10
				C132.4,30.6,129.7,35.1,124.8,35.1z"/>
			<rect x="94.9" y="135.9" class="st1" width="23.3" height="20.3"/>
			<rect x="94.9" y="114.5" class="st1" width="23.3" height="18.3"/>
			<rect x="94.9" y="93.2" class="st1" width="23.3" height="18.3"/>
			<rect x="94.9" y="71.8" class="st1" width="23.3" height="18.3"/>
			<path class="st1" d="M99.5,39c-4.6,0-8.2-1.2-10.8-3.7c-2.4-2.3-3.8-5.9-3.8-10.1c0-8.7,6.2-14.2,15.2-14.2c3.4,0,6,0.7,7.3,1.3
				l-1.1,4c-1.5-0.7-3.3-1.2-6.2-1.2c-5.9,0-10,3.5-10,9.8c0,6.2,3.8,9.9,9.5,9.9c1.8,0,3.1-0.2,3.8-0.5v-6.9h-4.8v-3.9h9.7v13.9
				C106.5,38.1,103.1,39,99.5,39z"/>
			<path class="st1" d="M63.4,28.9v9.8h-4.6V11.3h0h5.7L71.6,23c1.8,3,3.4,6.2,4.7,9.2h0.1c-0.4-3.7-0.4-7.2-0.4-11.4v-9.6h4.6v27.4
				h-5.2l-7.2-12.1c-1.7-3-3.5-6.3-4.9-9.4l-0.2,0C63.3,20.8,63.4,24.4,63.4,28.9z"/>
			<rect x="42.2" y="135.9" class="st1" width="23.3" height="20.3"/>
			<rect x="42.2" y="114.5" class="st1" width="23.3" height="18.3"/>
			<rect x="42.2" y="93.2" class="st1" width="23.3" height="18.3"/>
			<rect x="42.2" y="71.8" class="st1" width="23.3" height="18.3"/>
			<path class="st2" d="M124.6,39.1c7.5,0,13.1-5.2,13.1-14.4c0-7.8-4.7-13.9-12.7-13.9c-7.7,0-13.1,5.9-13.1,14.4
				C111.9,33.2,116.8,39.1,124.6,39.1z M121.2,68.8H146v-3c0-9.3-7.6-16.9-16.9-16.9h-7.9C121.2,48.9,121.2,68.8,121.2,68.8z
				 M121.2,90.2H146V71.8h-24.8C121.2,71.8,121.2,90.2,121.2,90.2z M121.2,111.5H146V93.2h-24.8C121.2,93.2,121.2,111.5,121.2,111.5
				z M121.2,132.9H146v-18.3h-24.8C121.2,114.5,121.2,132.9,121.2,132.9z M146,135.9h-24.8v20.3h7.9c9.4,0,16.9-7.6,16.9-16.9h0
				V135.9z M94.9,68.8h23.3v-20H94.9V68.8z M94.9,90.2h23.3V71.8H94.9V90.2z M94.9,111.5h23.3V93.2H94.9V111.5z M94.9,132.9h23.3
				v-18.3H94.9V132.9z M118.2,135.9H94.9v20.3h23.3V135.9z M88.7,35.3c2.6,2.5,6.1,3.7,10.8,3.7c3.6,0,7-0.9,8.8-1.5V23.6h-9.7v3.9
				h4.8v6.9c-0.7,0.3-1.9,0.5-3.8,0.5c-5.7,0-9.5-3.7-9.5-9.9c0-6.4,4.1-9.8,10-9.8c2.9,0,4.7,0.5,6.2,1.2l1.1-4
				c-1.3-0.6-3.9-1.3-7.3-1.3c-9.1,0-15.2,5.5-15.2,14.2C84.9,29.4,86.3,33,88.7,35.3z M68.6,68.8h23.3v-20H68.6V68.8z M68.6,90.2
				h23.3V71.8H68.6V90.2z M68.6,111.5h23.3V93.2H68.6V111.5z M68.6,132.9h23.3v-18.3H68.6V132.9z M91.9,135.9H68.6v20.3h23.3V135.9z
				 M68.1,26.6l7.2,12.1h5.2V11.3h-4.6v9.6c0,4.2,0.1,7.7,0.4,11.4h-0.1c-1.3-3-2.9-6.1-4.7-9.2l-7.1-11.7h-5.7h0v27.4h4.6v-9.8
				c0-4.5-0.1-8.1-0.3-11.7l0.2,0C64.6,20.3,66.4,23.6,68.1,26.6z M42.2,68.8h23.3v-20H42.2V68.8z M42.2,90.2h23.3V71.8H42.2V90.2z
				 M42.2,111.5h23.3V93.2H42.2V111.5z M42.2,132.9h23.3v-18.3H42.2V132.9z M65.6,135.9H42.2v20.3h23.3V135.9z M24.6,38.6
				c1.3,0.2,3.4,0.4,6.1,0.4c5,0,8.2-0.9,10.2-2.5c1.5-1.3,2.6-3.2,2.6-5.7c0-3.7-2.7-6-5.5-6.8v-0.1c3-1.1,4.5-3.4,4.5-5.9
				c0-2.4-1.1-4.1-2.8-5.2c-1.8-1.3-4.1-1.8-7.8-1.8c-2.8,0-5.7,0.3-7.3,0.6C24.6,11.7,24.6,38.6,24.6,38.6z M14.4,68.8h24.8v-20
				h-7.9c-9.4,0-17,7.6-17,16.9C14.4,65.8,14.4,68.8,14.4,68.8z M14.4,90.2h24.8V71.8H14.4V90.2z M14.4,111.5h24.8V93.2H14.4V111.5z
				 M14.4,132.9h24.8v-18.3H14.4V132.9z M14.4,139.2c0,9.4,7.6,16.9,17,16.9h7.9v-20.3H14.4V139.2z M160,16.9V155
				c0,9.4-7.6,16.9-16.9,16.9H16.9C7.6,172,0,164.4,0,155V16.9C0,7.6,7.6,0,16.9,0h126.1C152.4,0,160,7.6,160,16.9z M53.1,38.7V11.3
				h-5v27.4H53.1z"/>
			<rect x="48.1" y="11.3" class="st1" width="5" height="27.4"/>
			<path class="st1" d="M32.2,35.2c3.2,0,6.1-1.2,6.1-4.5c0-3.2-2.8-4.5-6.3-4.5h-2.5v9C30.2,35.2,31.1,35.2,32.2,35.2z M32,11.1
				c3.7,0,6,0.5,7.8,1.8c1.7,1,2.8,2.8,2.8,5.2c0,2.5-1.6,4.8-4.5,5.9V24c2.9,0.7,5.5,3,5.5,6.8c0,2.4-1.1,4.4-2.6,5.7
				c-2,1.7-5.2,2.5-10.2,2.5c-2.8,0-4.8-0.2-6.1-0.4V11.7C26.2,11.4,29.1,11.1,32,11.1z M29.6,22.5h2.6c3.5,0,5.4-1.6,5.4-3.9
				c0-2.6-2-3.8-5.1-3.8c-1.5,0-2.3,0.1-2.9,0.2C29.6,15,29.6,22.5,29.6,22.5z"/>
			<path class="st0" d="M39.2,135.9v20.3h-7.9c-9.4,0-17-7.6-17-16.9v-3.4H39.2z"/>
			<rect x="14.4" y="114.5" class="st0" width="24.8" height="18.3"/>
			<rect x="14.4" y="93.2" class="st0" width="24.8" height="18.3"/>
			<rect x="14.4" y="71.8" class="st0" width="24.8" height="18.3"/>
			<path class="st0" d="M39.2,48.9v20H14.4v-3c0-9.3,7.6-16.9,17-16.9H39.2z"/>
			<path class="st2" d="M29.6,26.1h2.5c3.5,0,6.3,1.3,6.3,4.5c0,3.4-2.9,4.6-6.1,4.6c-1.1,0-2,0-2.6-0.1
				C29.6,35.1,29.6,26.1,29.6,26.1z"/>
			<path class="st2" d="M32.4,14.8c3.2,0,5.1,1.2,5.1,3.8c0,2.3-1.9,3.9-5.4,3.9h-2.6V15C30.1,14.9,31,14.8,32.4,14.8z"/>
		</g>
	</g>
</g>
</svg>
