<?xml version="1.0" encoding="utf-8"?>
<!-- Generator: Adobe Illustrator 17.0.0, SVG Export Plug-In . SVG Version: 6.00 Build 0)  -->
<!DOCTYPE svg PUBLIC "-//W3C//DTD SVG 1.1//EN" "http://www.w3.org/Graphics/SVG/1.1/DTD/svg11.dtd">
<svg version="1.1" id="Capa_1" xmlns="http://www.w3.org/2000/svg" xmlns:xlink="http://www.w3.org/1999/xlink" x="0px" y="0px"
	 width="160px" height="171.996px" viewBox="-60 -64.499 160 171.996" enable-background="new -60 -64.499 160 171.996"
	 xml:space="preserve">
<g>
	<path fill="#8E8D8D" d="M64.835-29.386c4.84,0,7.56-4.516,7.56-10.244c0-5.16-2.56-10.036-7.56-10.036
		c-4.956,0-7.6,4.592-7.6,10.24C57.235-33.814,60.035-29.386,64.835-29.386z"/>
	<path fill="#8E8D8D" d="M-22.443-45.926c0-2.604-1.952-3.784-5.12-3.784c-1.464,0-2.32,0.084-2.844,0.204v7.52h2.56
		C-24.355-41.986-22.443-43.606-22.443-45.926z"/>
	<path fill="#8E8D8D" d="M-21.671-33.854c0-3.212-2.804-4.512-6.26-4.512h-2.48v8.944c0.652,0.12,1.504,0.12,2.64,0.12
		C-24.555-29.302-21.671-30.482-21.671-33.854z"/>
	<path fill="#8E8D8D" d="M83.06-64.499H-43.056C-52.412-64.499-60-56.91-60-47.554V90.553c0,9.356,7.588,16.944,16.944,16.944
		H83.056c9.36,0,16.944-7.588,16.944-16.944V-47.554C100.004-56.91,92.42-64.499,83.06-64.499z M86.012,1.303v3.02H61.19v-19.965
		h7.877C78.431-15.641,86.012-8.053,86.012,1.303z M5.547-15.641V4.323h-23.321v-19.965H5.547z M8.547,47.012V28.668h23.321v18.345
		H8.547z M31.869,50.012v18.344H8.547V50.012H31.869z M8.547,25.668V7.323h23.321v18.344H8.547z M34.869,28.668H58.19v18.345H34.869
		V28.668z M34.869,25.668V7.323H58.19v18.344H34.869z M34.869,4.323v-19.965H58.19V4.323H34.869z M31.869,4.323H8.547v-19.965
		h23.321V4.323z M5.547,7.323v18.344h-23.321V7.323H5.547z M5.547,28.668v18.345h-23.321V28.668H5.547z M5.547,50.012v18.344
		h-23.321V50.012H5.547z M5.547,71.357v20.325h-23.321V71.357H5.547z M8.547,71.357h23.321v20.325H8.547V71.357z M34.869,71.357
		H58.19v20.325H34.869V71.357z M34.869,68.357V50.012H58.19v18.344H34.869z M61.19,50.012h24.822v18.344H61.19V50.012z
		 M61.19,47.012V28.668h24.822v18.345H61.19z M61.19,25.668V7.323h24.822v18.344H61.19z M64.999-53.69
		c7.964,0,12.68,6.056,12.68,13.904c0,9.188-5.568,14.428-13.088,14.428c-7.76,0-12.64-5.936-12.64-13.94
		C51.951-47.758,57.275-53.69,64.999-53.69z M40.107-53.486c3.376,0,6.016,0.692,7.276,1.3l-1.092,4.024
		c-1.504-0.692-3.332-1.18-6.22-1.18c-5.856,0-9.96,3.452-9.96,9.836c0,6.22,3.82,9.92,9.512,9.92c1.828,0,3.132-0.244,3.78-0.528
		v-6.872h-4.836v-3.944h9.676v13.86c-1.752,0.652-5.164,1.544-8.784,1.544c-4.632,0-8.168-1.18-10.768-3.66
		c-2.44-2.32-3.82-5.936-3.82-10.08C24.906-47.958,31.042-53.486,40.107-53.486z M-1.259-53.202h0.004h0.004h5.732l7.072,11.744
		c1.784,3.052,3.412,6.22,4.672,9.188h0.08c-0.364-3.66-0.448-7.196-0.448-11.38v-9.548h4.632v27.397h-5.2L8.134-37.874
		c-1.748-3.012-3.536-6.34-4.876-9.432l-0.164,0.04c0.204,3.536,0.284,7.152,0.284,11.664v9.8h-4.636V-53.202z M-11.943-53.202h5
		v27.393h-5V-53.202z M-28.051-53.406c3.66,0,5.972,0.488,7.804,1.748c1.708,1.016,2.848,2.808,2.848,5.16
		c0,2.52-1.588,4.796-4.552,5.892v0.124c2.884,0.732,5.528,3.012,5.528,6.748c0,2.44-1.056,4.352-2.6,5.688
		c-1.952,1.668-5.164,2.524-10.2,2.524c-2.764,0-4.836-0.204-6.136-0.364v-26.909h-0.008
		C-33.779-53.122-30.899-53.406-28.051-53.406z M-45.596,1.303c0-9.356,7.588-16.944,16.944-16.944h7.877V4.323h-24.821V1.303z
		 M-45.596,7.323h24.821v18.344h-24.821V7.323z M-45.596,28.668h24.821v18.345h-24.821V28.668z M-45.596,50.012h24.821v18.344
		h-24.821V50.012z M-45.596,74.737v-3.38h24.821v20.325h-7.877C-38.007,91.681-45.596,84.093-45.596,74.737z M69.071,91.681H61.19
		V71.357h24.822v3.38h0.004C86.016,84.093,78.427,91.681,69.071,91.681z"/>
</g>
</svg>
