<?xml version="1.0" encoding="utf-8"?>
<!-- Generator: Adobe Illustrator 17.0.0, SVG Export Plug-In . SVG Version: 6.00 Build 0)  -->
<!DOCTYPE svg PUBLIC "-//W3C//DTD SVG 1.1//EN" "http://www.w3.org/Graphics/SVG/1.1/DTD/svg11.dtd">
<svg version="1.1" id="Capa_1" xmlns="http://www.w3.org/2000/svg" xmlns:xlink="http://www.w3.org/1999/xlink" x="0px" y="0px"
	 width="160px" height="171.996px" viewBox="0 0 160 171.996" enable-background="new 0 0 160 171.996" xml:space="preserve">
<g>
	<g id="XMLID_1_">
		<g>
			<path fill="#DE2B7B" d="M146.02,139.238c0,9.35-7.59,16.94-16.95,16.94h-7.88v-20.32h24.82v3.38H146.02z"/>
			<rect x="121.19" y="114.508" fill="#DE2B7B" width="24.82" height="18.35"/>
			<rect x="121.19" y="93.168" fill="#DE2B7B" width="24.82" height="18.34"/>
			<rect x="121.19" y="71.818" fill="#FFFFFF" width="24.82" height="18.35"/>
			<path fill="#DE2B7B" d="M129.07,48.858c9.36,0,16.94,7.59,16.94,16.94v3.02h-24.82v-19.96H129.07z"/>
			<path fill="#FFFFFF" d="M124.84,35.108c4.84,0,7.56-4.51,7.56-10.24c0-5.16-2.56-10.04-7.56-10.04c-4.96,0-7.61,4.6-7.61,10.24
				C117.23,30.688,120.03,35.108,124.84,35.108z M124.59,39.138c-7.76,0-12.64-5.93-12.64-13.94c0-8.46,5.32-14.39,13.05-14.39
				c7.96,0,12.68,6.06,12.68,13.9C137.68,33.898,132.11,39.138,124.59,39.138z"/>
			<path fill="#8E8D8D" d="M124.84,35.108c-4.81,0-7.61-4.42-7.61-10.04c0-5.64,2.65-10.24,7.61-10.24c5,0,7.56,4.88,7.56,10.04
				C132.4,30.598,129.68,35.108,124.84,35.108z"/>
			<rect x="94.87" y="135.858" fill="#DE2B7B" width="23.32" height="20.32"/>
			<rect x="94.87" y="114.508" fill="#FFFFFF" width="23.32" height="18.35"/>
			<rect x="94.87" y="93.168" fill="#DE2B7B" width="23.32" height="18.34"/>
			<rect x="94.87" y="71.818" fill="#FFFFFF" width="23.32" height="18.35"/>
			<rect x="94.87" y="48.858" fill="#DE2B7B" width="23.32" height="19.96"/>
			<path fill="#FFFFFF" d="M99.46,38.968c-4.63,0-8.17-1.18-10.77-3.66c-2.44-2.32-3.82-5.93-3.82-10.08
				c0.04-8.69,6.17-14.22,15.24-14.22c3.37,0,6.01,0.7,7.27,1.3l-1.09,4.03c-1.5-0.69-3.33-1.18-6.22-1.18
				c-5.86,0-9.96,3.45-9.96,9.83c0,6.22,3.82,9.92,9.51,9.92c1.83,0,3.13-0.24,3.78-0.52v-6.88h-4.83v-3.94h9.67v13.86
				C106.49,38.078,103.08,38.968,99.46,38.968z"/>
			<rect x="68.55" y="135.858" fill="#DE2B7B" width="23.32" height="20.32"/>
			<rect x="68.55" y="114.508" fill="#FFFFFF" width="23.32" height="18.35"/>
			<rect x="68.55" y="93.168" fill="#DE2B7B" width="23.32" height="18.34"/>
			<rect x="68.55" y="71.818" fill="#FFFFFF" width="23.32" height="18.35"/>
			<rect x="68.55" y="48.858" fill="#DE2B7B" width="23.32" height="19.96"/>
			<path fill="#FFFFFF" d="M63.38,28.898v9.8h-4.64v-27.4h0.01h5.73l7.07,11.74c1.79,3.05,3.42,6.22,4.68,9.19h0.08
				c-0.37-3.66-0.45-7.2-0.45-11.38v-9.55h4.63v27.4h-5.2l-7.16-12.07c-1.74-3.02-3.53-6.34-4.87-9.44l-0.17,0.04
				C63.3,20.768,63.38,24.388,63.38,28.898z"/>
			<rect x="42.23" y="135.858" fill="#DE2B7B" width="23.32" height="20.32"/>
			<rect x="42.23" y="114.508" fill="#FFFFFF" width="23.32" height="18.35"/>
			<rect x="42.23" y="93.168" fill="#DE2B7B" width="23.32" height="18.34"/>
			<rect x="42.23" y="71.818" fill="#FFFFFF" width="23.32" height="18.35"/>
			<rect x="42.23" y="48.858" fill="#DE2B7B" width="23.32" height="19.96"/>
			<path fill="#8E8D8D" d="M14.4,68.818h24.83v-19.96h-7.88c-9.36,0-16.95,7.59-16.95,16.94V68.818z M14.4,90.168h24.83v-18.35H14.4
				V90.168z M14.4,111.508h24.83v-18.34H14.4V111.508z M14.4,132.858h24.83v-18.35H14.4V132.858z M14.4,139.238
				c0,9.35,7.59,16.94,16.95,16.94h7.88v-20.32H14.4V139.238z M124.59,39.138c7.52,0,13.09-5.24,13.09-14.43
				c0-7.84-4.72-13.9-12.68-13.9c-7.73,0-13.05,5.93-13.05,14.39C111.95,33.208,116.83,39.138,124.59,39.138z M121.19,68.818h24.82
				v-3.02c0-9.35-7.58-16.94-16.94-16.94h-7.88V68.818z M121.19,90.168h24.82v-18.35h-24.82V90.168z M121.19,111.508h24.82v-18.34
				h-24.82V111.508z M121.19,132.858h24.82v-18.35h-24.82V132.858z M146.01,135.858h-24.82v20.32h7.88
				c9.36,0,16.95-7.59,16.95-16.94h-0.01V135.858z M94.87,68.818h23.32v-19.96H94.87V68.818z M94.87,90.168h23.32v-18.35H94.87
				V90.168z M94.87,111.508h23.32v-18.34H94.87V111.508z M94.87,132.858h23.32v-18.35H94.87V132.858z M118.19,135.858H94.87v20.32
				h23.32V135.858z M88.69,35.308c2.6,2.48,6.14,3.66,10.77,3.66c3.62,0,7.03-0.89,8.78-1.54v-13.86h-9.67v3.94h4.83v6.88
				c-0.65,0.28-1.95,0.52-3.78,0.52c-5.69,0-9.51-3.7-9.51-9.92c0-6.38,4.1-9.83,9.96-9.83c2.89,0,4.72,0.49,6.22,1.18l1.09-4.03
				c-1.26-0.6-3.9-1.3-7.27-1.3c-9.07,0-15.2,5.53-15.24,14.22C84.87,29.378,86.25,32.988,88.69,35.308z M68.55,68.818h23.32v-19.96
				H68.55V68.818z M68.55,90.168h23.32v-18.35H68.55V90.168z M68.55,111.508h23.32v-18.34H68.55V111.508z M68.55,132.858h23.32
				v-18.35H68.55V132.858z M91.87,135.858H68.55v20.32h23.32V135.858z M68.13,26.628l7.16,12.07h5.2v-27.4h-4.63v9.55
				c0,4.18,0.08,7.72,0.45,11.38h-0.08c-1.26-2.97-2.89-6.14-4.68-9.19l-7.07-11.74h-5.73h-0.01v27.4h4.64v-9.8
				c0-4.51-0.08-8.13-0.29-11.67l0.17-0.04C64.6,20.288,66.39,23.608,68.13,26.628z M42.23,68.818h23.32v-19.96H42.23V68.818z
				 M42.23,90.168h23.32v-18.35H42.23V90.168z M42.23,111.508h23.32v-18.34H42.23V111.508z M42.23,132.858h23.32v-18.35H42.23
				V132.858z M65.55,135.858H42.23v20.32h23.32V135.858z M38.05,23.888c2.96-1.09,4.55-3.37,4.55-5.89c0-2.35-1.14-4.14-2.85-5.16
				c-1.83-1.26-4.14-1.75-7.8-1.75c-2.84,0-5.72,0.29-7.31,0.62v26.9c1.3,0.16,3.37,0.37,6.14,0.37c5.03,0,8.24-0.86,10.2-2.53
				c1.54-1.33,2.6-3.24,2.6-5.68c0-3.74-2.65-6.02-5.53-6.75V23.888z M160,16.948v138.1c0,9.36-7.58,16.95-16.94,16.95H16.94
				c-9.35,0-16.94-7.59-16.94-16.95v-138.1c0-9.36,7.59-16.95,16.94-16.95h126.12C152.42-0.002,160,7.588,160,16.948z M53.06,38.688
				v-27.39h-5v27.39H53.06z"/>
			<rect x="48.06" y="11.298" fill="#FFFFFF" width="5" height="27.39"/>
			<path fill="#FFFFFF" d="M29.59,22.508h2.56c3.49,0,5.41-1.62,5.41-3.94c0-2.6-1.96-3.78-5.12-3.78c-1.47,0-2.32,0.08-2.85,0.2
				V22.508z M29.59,35.078c0.65,0.12,1.5,0.12,2.64,0.12c3.21,0,6.1-1.18,6.1-4.55c0-3.22-2.81-4.52-6.26-4.52h-2.48V35.078z
				 M42.6,17.998c0,2.52-1.59,4.8-4.55,5.89v0.13c2.88,0.73,5.53,3.01,5.53,6.75c0,2.44-1.06,4.35-2.6,5.68
				c-1.96,1.67-5.17,2.53-10.2,2.53c-2.77,0-4.84-0.21-6.14-0.37v-26.9c1.59-0.33,4.47-0.62,7.31-0.62c3.66,0,5.97,0.49,7.8,1.75
				C41.46,13.858,42.6,15.648,42.6,17.998z"/>
			<path fill="#DE2B7B" d="M39.23,135.858v20.32h-7.88c-9.36,0-16.95-7.59-16.95-16.94v-3.38H39.23z"/>
			<rect x="14.4" y="114.508" fill="#FFFFFF" width="24.83" height="18.35"/>
			<rect x="14.4" y="93.168" fill="#DE2B7B" width="24.83" height="18.34"/>
			<rect x="14.4" y="71.818" fill="#DE2B7B" width="24.83" height="18.35"/>
			<path fill="#DE2B7B" d="M39.23,48.858v19.96H14.4v-3.02c0-9.35,7.59-16.94,16.95-16.94H39.23z"/>
			<path fill="#8E8D8D" d="M38.33,30.648c0,3.37-2.89,4.55-6.1,4.55c-1.14,0-1.99,0-2.64-0.12v-8.95h2.48
				C35.52,26.128,38.33,27.428,38.33,30.648z"/>
			<path fill="#8E8D8D" d="M32.44,14.788c3.16,0,5.12,1.18,5.12,3.78c0,2.32-1.92,3.94-5.41,3.94h-2.56v-7.52
				C30.12,14.868,30.97,14.788,32.44,14.788z"/>
		</g>
		<g>
		</g>
	</g>
</g>
</svg>
