<?xml version="1.0" encoding="utf-8"?>
<!-- Generator: Adobe Illustrator 17.0.0, SVG Export Plug-In . SVG Version: 6.00 Build 0)  -->
<!DOCTYPE svg PUBLIC "-//W3C//DTD SVG 1.1//EN" "http://www.w3.org/Graphics/SVG/1.1/DTD/svg11.dtd">
<svg version="1.1" id="Capa_1" xmlns="http://www.w3.org/2000/svg" xmlns:xlink="http://www.w3.org/1999/xlink" x="0px" y="0px"
	 width="160px" height="171.996px" viewBox="0 0 160 171.996" enable-background="new 0 0 160 171.996" xml:space="preserve">
<g>
	<g id="XMLID_1_">
		<g>
			<rect x="121.19" y="114.51" fill="#FFFFFF" width="24.82" height="18.35"/>
			<path fill="#8E8D8D" d="M160,16.95v138.1c0,9.36-7.58,16.95-16.94,16.95H16.94C7.59,172,0,164.41,0,155.05V16.95
				C0,7.59,7.59,0,16.94,0h126.12C152.42,0,160,7.59,160,16.95z M146.02,139.24h-0.01v-3.38h-24.82v20.32h7.88
				C138.43,156.18,146.02,148.59,146.02,139.24z M146.01,132.86v-18.35h-24.82v18.35H146.01z M146.01,111.51V93.17h-24.82v18.34
				H146.01z M146.01,90.17V71.82h-24.82v18.35H146.01z M146.01,68.82V65.8c0-9.35-7.58-16.94-16.94-16.94h-7.88v19.96
				C121.19,68.82,146.01,68.82,146.01,68.82z M137.68,24.71c0-7.84-4.72-13.9-12.68-13.9c-7.73,0-13.05,5.93-13.05,14.39
				c0,8.01,4.88,13.94,12.64,13.94C132.11,39.14,137.68,33.9,137.68,24.71z M118.19,156.18v-20.32H94.87v20.32H118.19z
				 M118.19,132.86v-18.35H94.87v18.35H118.19z M118.19,111.51V93.17H94.87v18.34H118.19z M118.19,90.17V71.82H94.87v18.35H118.19z
				 M118.19,68.82V48.86H94.87v19.96H118.19z M108.24,37.43V23.57h-9.67v3.94h4.83v6.88c-0.65,0.28-1.95,0.52-3.78,0.52
				c-5.69,0-9.51-3.7-9.51-9.92c0-6.38,4.1-9.83,9.96-9.83c2.89,0,4.72,0.49,6.22,1.18l1.09-4.03c-1.26-0.6-3.9-1.3-7.27-1.3
				c-9.07,0-15.2,5.53-15.24,14.22c0,4.15,1.38,7.76,3.82,10.08c2.6,2.48,6.14,3.66,10.77,3.66
				C103.08,38.97,106.49,38.08,108.24,37.43z M91.87,156.18v-20.32H68.55v20.32H91.87z M91.87,132.86v-18.35H68.55v18.35H91.87z
				 M91.87,111.51V93.17H68.55v18.34H91.87z M91.87,90.17V71.82H68.55v18.35H91.87z M91.87,68.82V48.86H68.55v19.96H91.87z
				 M80.49,38.7V11.3h-4.63v9.55c0,4.18,0.08,7.72,0.45,11.38h-0.08c-1.26-2.97-2.89-6.14-4.68-9.19L64.48,11.3h-5.73h-0.01v27.4
				h4.64v-9.8c0-4.51-0.08-8.13-0.29-11.67l0.17-0.04c1.34,3.1,3.13,6.42,4.87,9.44l7.16,12.07C75.29,38.7,80.49,38.7,80.49,38.7z
				 M65.55,156.18v-20.32H42.23v20.32H65.55z M65.55,132.86v-18.35H42.23v18.35H65.55z M65.55,111.51V93.17H42.23v18.34H65.55z
				 M65.55,90.17V71.82H42.23v18.35H65.55z M65.55,68.82V48.86H42.23v19.96H65.55z M53.06,38.69V11.3h-5v27.39H53.06z M40.98,36.45
				c1.54-1.33,2.6-3.24,2.6-5.68c0-3.74-2.65-6.02-5.53-6.75v-0.13c2.96-1.09,4.55-3.37,4.55-5.89c0-2.35-1.14-4.14-2.85-5.16
				c-1.83-1.26-4.14-1.75-7.8-1.75c-2.84,0-5.72,0.29-7.31,0.62v26.9c1.3,0.16,3.37,0.37,6.14,0.37
				C35.81,38.98,39.02,38.12,40.98,36.45z M39.23,156.18v-20.32H14.4v3.38c0,9.35,7.59,16.94,16.95,16.94H39.23z M39.23,132.86
				v-18.35H14.4v18.35H39.23z M39.23,111.51V93.17H14.4v18.34H39.23z M39.23,90.17V71.82H14.4v18.35H39.23z M39.23,68.82V48.86
				h-7.88c-9.36,0-16.95,7.59-16.95,16.94v3.02C14.4,68.82,39.23,68.82,39.23,68.82z"/>
			<path fill="#DE2B7B" d="M146.01,139.24h0.01c0,9.35-7.59,16.94-16.95,16.94h-7.88v-20.32h24.82
				C146.01,135.86,146.01,139.24,146.01,139.24z"/>
			<rect x="121.19" y="93.17" fill="#FFFFFF" width="24.82" height="18.34"/>
			<rect x="121.19" y="71.82" fill="#FFFFFF" width="24.82" height="18.35"/>
			<path fill="#DE2B7B" d="M146.01,65.8v3.02h-24.82V48.86h7.88C138.43,48.86,146.01,56.45,146.01,65.8z"/>
			<path fill="#FFFFFF" d="M125,10.81c7.96,0,12.68,6.06,12.68,13.9c0,9.19-5.57,14.43-13.09,14.43c-7.76,0-12.64-5.93-12.64-13.94
				C111.95,16.74,117.27,10.81,125,10.81z M132.4,24.87c0-5.16-2.56-10.04-7.56-10.04c-4.96,0-7.61,4.6-7.61,10.24
				c0,5.62,2.8,10.04,7.61,10.04C129.68,35.11,132.4,30.6,132.4,24.87z"/>
			<path fill="#8E8D8D" d="M124.84,14.83c5,0,7.56,4.88,7.56,10.04c0,5.73-2.72,10.24-7.56,10.24c-4.81,0-7.61-4.42-7.61-10.04
				C117.23,19.43,119.88,14.83,124.84,14.83z"/>
			<rect x="94.87" y="135.86" fill="#DE2B7B" width="23.32" height="20.32"/>
			<rect x="94.87" y="114.51" fill="#FFFFFF" width="23.32" height="18.35"/>
			<rect x="94.87" y="93.17" fill="#FFFFFF" width="23.32" height="18.34"/>
			<rect x="94.87" y="71.82" fill="#DE2B7B" width="23.32" height="18.35"/>
			<rect x="94.87" y="48.86" fill="#DE2B7B" width="23.32" height="19.96"/>
			<path fill="#FFFFFF" d="M108.24,23.57v13.86c-1.75,0.65-5.16,1.54-8.78,1.54c-4.63,0-8.17-1.18-10.77-3.66
				c-2.44-2.32-3.82-5.93-3.82-10.08c0.04-8.69,6.17-14.22,15.24-14.22c3.37,0,6.01,0.7,7.27,1.3l-1.09,4.03
				c-1.5-0.69-3.33-1.18-6.22-1.18c-5.86,0-9.96,3.45-9.96,9.83c0,6.22,3.82,9.92,9.51,9.92c1.83,0,3.13-0.24,3.78-0.52v-6.88h-4.83
				v-3.94H108.24z"/>
			<rect x="68.55" y="135.86" fill="#DE2B7B" width="23.32" height="20.32"/>
			<rect x="68.55" y="114.51" fill="#FFFFFF" width="23.32" height="18.35"/>
			<rect x="68.55" y="93.17" fill="#DE2B7B" width="23.32" height="18.34"/>
			<rect x="68.55" y="71.82" fill="#FFFFFF" width="23.32" height="18.35"/>
			<rect x="68.55" y="48.86" fill="#DE2B7B" width="23.32" height="19.96"/>
			<path fill="#FFFFFF" d="M80.49,11.3v27.4h-5.2l-7.16-12.07c-1.74-3.02-3.53-6.34-4.87-9.44l-0.17,0.04
				c0.21,3.54,0.29,7.16,0.29,11.67v9.8h-4.64V11.3h0.01h5.73l7.07,11.74c1.79,3.05,3.42,6.22,4.68,9.19h0.08
				c-0.37-3.66-0.45-7.2-0.45-11.38V11.3H80.49z"/>
			<rect x="42.23" y="135.86" fill="#DE2B7B" width="23.32" height="20.32"/>
			<rect x="42.23" y="114.51" fill="#DE2B7B" width="23.32" height="18.35"/>
			<rect x="42.23" y="93.17" fill="#FFFFFF" width="23.32" height="18.34"/>
			<rect x="42.23" y="71.82" fill="#FFFFFF" width="23.32" height="18.35"/>
			<rect x="42.23" y="48.86" fill="#DE2B7B" width="23.32" height="19.96"/>
			<rect x="48.06" y="11.3" fill="#FFFFFF" width="5" height="27.39"/>
			<path fill="#FFFFFF" d="M43.58,30.77c0,2.44-1.06,4.35-2.6,5.68c-1.96,1.67-5.17,2.53-10.2,2.53c-2.77,0-4.84-0.21-6.14-0.37
				v-26.9c1.59-0.33,4.47-0.62,7.31-0.62c3.66,0,5.97,0.49,7.8,1.75c1.71,1.02,2.85,2.81,2.85,5.16c0,2.52-1.59,4.8-4.55,5.89v0.13
				C40.93,24.75,43.58,27.03,43.58,30.77z M38.33,30.65c0-3.22-2.81-4.52-6.26-4.52h-2.48v8.95c0.65,0.12,1.5,0.12,2.64,0.12
				C35.44,35.2,38.33,34.02,38.33,30.65z M37.56,18.57c0-2.6-1.96-3.78-5.12-3.78c-1.47,0-2.32,0.08-2.85,0.2v7.52h2.56
				C35.64,22.51,37.56,20.89,37.56,18.57z"/>
			<path fill="#DE2B7B" d="M39.23,135.86v20.32h-7.88c-9.36,0-16.95-7.59-16.95-16.94v-3.38H39.23z"/>
			<rect x="14.4" y="114.51" fill="#FFFFFF" width="24.83" height="18.35"/>
			<rect x="14.4" y="93.17" fill="#FFFFFF" width="24.83" height="18.34"/>
			<rect x="14.4" y="71.82" fill="#FFFFFF" width="24.83" height="18.35"/>
			<path fill="#DE2B7B" d="M39.23,48.86v19.96H14.4V65.8c0-9.35,7.59-16.94,16.95-16.94C31.35,48.86,39.23,48.86,39.23,48.86z"/>
			<path fill="#8E8D8D" d="M32.07,26.13c3.45,0,6.26,1.3,6.26,4.52c0,3.37-2.89,4.55-6.1,4.55c-1.14,0-1.99,0-2.64-0.12v-8.95H32.07
				z"/>
			<path fill="#8E8D8D" d="M32.44,14.79c3.16,0,5.12,1.18,5.12,3.78c0,2.32-1.92,3.94-5.41,3.94h-2.56v-7.52
				C30.12,14.87,30.97,14.79,32.44,14.79z"/>
		</g>
	</g>
</g>
</svg>
